<svg width="375" height="123" viewBox="0 0 375 123" fill="none" xmlns="http://www.w3.org/2000/svg">
<g clip-path="url(#clip0)">
<rect y="-385" width="375" height="812" fill="white"/>
<rect y="-385" width="375" height="812" fill="#F3F4F8"/>
<path d="M-12 122V59.3789C-12 40.2029 9.59357 28.9715 25.294 39.9815L26.9031 41.1099C35.8908 47.4125 48.183 45.9328 55.4182 37.6773C65.4358 26.2471 83.8273 28.5355 90.7383 42.0721L102.006 64.1417C106.593 73.1273 118.844 74.5575 125.378 66.8702C131.564 59.5929 143.035 60.4123 148.123 68.4949L151.253 73.4664C159.456 86.4966 179.068 84.344 184.249 69.8447L199.125 28.2167C205.072 11.5743 227.78 9.52529 236.61 24.8343L240.575 31.7083C246.156 41.3847 259.824 42.1759 266.484 33.2082C273.221 24.1381 287.081 25.0728 292.539 34.9652L299.744 48.0256C308.685 64.2313 331.51 65.4962 342.231 50.4089C356.444 30.4074 388 40.3991 388 64.9363V122C388 144.091 370.091 162 348 162H28C5.90861 162 -12 144.091 -12 122Z" fill="url(#paint0_linear)" stroke="#36D8C3"/>
<line x1="71.5" y1="19" x2="71.5" y2="133" stroke="#36D8C3"/>
<path d="M64.19 6.78C64.77 6.78 65.2033 6.93333 65.49 7.24C65.7833 7.54 65.93 7.93667 65.93 8.43C65.93 9.28333 65.67 9.95 65.15 10.43C64.63 10.9033 63.8567 11.14 62.83 11.14C61.8033 11.14 61.1067 10.9333 60.74 10.52C60.4867 10.2267 60.36 9.81667 60.36 9.29C60.36 9.06333 60.3833 8.82 60.43 8.56L60.84 6.26C61.14 4.57333 62.2067 3.73 64.04 3.73C64.82 3.73 65.41 3.87 65.81 4.15C66.21 4.42333 66.41 4.80667 66.41 5.3C66.41 5.49333 66.38 5.68 66.32 5.86C66.2667 6.03333 66.21 6.16 66.15 6.24L66.06 6.36H64.29C64.45 6.19333 64.53 5.98667 64.53 5.74C64.53 5.43333 64.2733 5.28 63.76 5.28C63.1267 5.28 62.7433 5.65333 62.61 6.4L62.54 6.78H64.19ZM63.34 8.13H62.31L62.26 8.42C62.2333 8.58667 62.22 8.75333 62.22 8.92C62.22 9.36667 62.48 9.59 63 9.59C63.7267 9.59 64.09 9.31 64.09 8.75C64.09 8.33667 63.84 8.13 63.34 8.13ZM71.3748 9.46C71.3748 9.63333 71.4615 9.72 71.6348 9.72C71.8148 9.72 71.9648 9.68667 72.0848 9.62L72.0348 10.75C71.7148 11.01 71.3548 11.14 70.9548 11.14C70.2215 11.14 69.8148 10.8733 69.7348 10.34C69.4015 10.8733 68.9115 11.14 68.2648 11.14C67.1715 11.14 66.6248 10.67 66.6248 9.73C66.6248 9.57 66.6415 9.39333 66.6748 9.2L66.8848 8.03C66.9915 7.43 67.2348 6.95333 67.6148 6.6C68.0015 6.24 68.5015 6.06 69.1148 6.06C69.7348 6.06 70.1548 6.20333 70.3748 6.49L70.4248 6.19H71.9448L71.3848 9.34C71.3782 9.38 71.3748 9.42 71.3748 9.46ZM68.4148 8.98C68.4015 9.04 68.3948 9.12333 68.3948 9.23C68.3948 9.33667 68.4448 9.44333 68.5448 9.55C68.6448 9.65 68.8115 9.7 69.0448 9.7C69.2848 9.7 69.4915 9.60667 69.6648 9.42L69.9648 7.74C69.8915 7.57333 69.7182 7.49 69.4448 7.49C68.9315 7.49 68.6315 7.73667 68.5448 8.23L68.4148 8.98ZM80.9805 9.72C81.1338 9.72 81.2705 9.68667 81.3905 9.62L81.3405 10.75C81.0271 11.01 80.6705 11.14 80.2705 11.14C79.3638 11.14 78.9105 10.76 78.9105 10C78.9105 9.86667 78.9238 9.72333 78.9505 9.57L79.1605 8.34C79.1805 8.22 79.1905 8.1 79.1905 7.98C79.1905 7.66 79.0138 7.5 78.6605 7.5C78.3138 7.5 78.0405 7.63667 77.8405 7.91L77.3005 11H75.6005L76.0705 8.34C76.0905 8.22 76.1005 8.1 76.1005 7.98C76.1005 7.66 75.9205 7.5 75.5605 7.5C75.2738 7.5 75.0271 7.61 74.8205 7.83L74.2605 11H72.5605L73.4105 6.19H74.9905L74.8805 6.79C75.2805 6.29667 75.7871 6.05 76.4005 6.05C77.2671 6.05 77.7605 6.33667 77.8805 6.91C78.2805 6.33667 78.8138 6.05 79.4805 6.05C80.1538 6.05 80.5905 6.2 80.7905 6.5C80.9238 6.70667 80.9905 6.93333 80.9905 7.18C80.9905 7.42667 80.9738 7.65 80.9405 7.85L80.6905 9.34C80.6838 9.38 80.6805 9.41667 80.6805 9.45C80.6805 9.63 80.7805 9.72 80.9805 9.72Z" fill="#828282"/>
<line x1="110.5" y1="19" x2="110.5" y2="133" stroke="#36D8C3"/>
<path d="M98.17 9.42C98.17 9.09333 98.2167 8.79333 98.31 8.52C98.41 8.24667 98.5133 8.04 98.62 7.9C98.7333 7.75333 98.8733 7.62 99.04 7.5C99.2067 7.38 99.3133 7.31 99.36 7.29C99.4133 7.27 99.4767 7.24667 99.55 7.22C99.41 7.17333 99.2733 7.04667 99.14 6.84C99.02 6.64 98.96 6.37 98.96 6.03C98.96 5.32333 99.2233 4.76667 99.75 4.36C100.283 3.94667 100.963 3.74 101.79 3.74C102.617 3.74 103.22 3.87667 103.6 4.15C103.98 4.42333 104.17 4.80667 104.17 5.3C104.17 5.55333 104.127 5.78667 104.04 6C103.953 6.21333 103.847 6.38 103.72 6.5C103.46 6.76667 103.233 6.93667 103.04 7.01L102.91 7.06C103.443 7.37333 103.71 7.88667 103.71 8.6C103.71 9.48 103.44 10.1233 102.9 10.53C102.367 10.9367 101.58 11.14 100.54 11.14C99.82 11.14 99.2433 11 98.81 10.72C98.3833 10.4333 98.17 10 98.17 9.42ZM99.99 8.93C99.99 9.37 100.267 9.59 100.82 9.59C101.18 9.59 101.46 9.51333 101.66 9.36C101.867 9.2 101.97 8.98 101.97 8.7C101.97 8.42 101.81 8.24 101.49 8.16L100.83 8.01C100.81 8.01667 100.78 8.02667 100.74 8.04C100.7 8.04667 100.63 8.07333 100.53 8.12C100.437 8.16667 100.353 8.22 100.28 8.28C100.087 8.45333 99.99 8.67 99.99 8.93ZM102.13 6.21C102.17 6.09667 102.19 5.96667 102.19 5.82C102.19 5.67333 102.137 5.54667 102.03 5.44C101.93 5.33333 101.767 5.28 101.54 5.28C101.32 5.28 101.133 5.35333 100.98 5.5C100.827 5.64 100.75 5.78667 100.75 5.94C100.75 6.08667 100.773 6.2 100.82 6.28C100.887 6.41333 100.963 6.49 101.05 6.51L101.63 6.65C101.67 6.65 101.727 6.63 101.8 6.59C101.88 6.55 101.943 6.50667 101.99 6.46C102.043 6.40667 102.09 6.32333 102.13 6.21ZM109.16 9.46C109.16 9.63333 109.247 9.72 109.42 9.72C109.6 9.72 109.75 9.68667 109.87 9.62L109.82 10.75C109.5 11.01 109.14 11.14 108.74 11.14C108.007 11.14 107.6 10.8733 107.52 10.34C107.187 10.8733 106.697 11.14 106.05 11.14C104.957 11.14 104.41 10.67 104.41 9.73C104.41 9.57 104.427 9.39333 104.46 9.2L104.67 8.03C104.777 7.43 105.02 6.95333 105.4 6.6C105.787 6.24 106.287 6.06 106.9 6.06C107.52 6.06 107.94 6.20333 108.16 6.49L108.21 6.19H109.73L109.17 9.34C109.163 9.38 109.16 9.42 109.16 9.46ZM106.2 8.98C106.187 9.04 106.18 9.12333 106.18 9.23C106.18 9.33667 106.23 9.44333 106.33 9.55C106.43 9.65 106.597 9.7 106.83 9.7C107.07 9.7 107.277 9.60667 107.45 9.42L107.75 7.74C107.677 7.57333 107.503 7.49 107.23 7.49C106.717 7.49 106.417 7.73667 106.33 8.23L106.2 8.98ZM118.766 9.72C118.919 9.72 119.056 9.68667 119.176 9.62L119.126 10.75C118.812 11.01 118.456 11.14 118.056 11.14C117.149 11.14 116.696 10.76 116.696 10C116.696 9.86667 116.709 9.72333 116.736 9.57L116.946 8.34C116.966 8.22 116.976 8.1 116.976 7.98C116.976 7.66 116.799 7.5 116.446 7.5C116.099 7.5 115.826 7.63667 115.626 7.91L115.086 11H113.386L113.856 8.34C113.876 8.22 113.886 8.1 113.886 7.98C113.886 7.66 113.706 7.5 113.346 7.5C113.059 7.5 112.812 7.61 112.606 7.83L112.046 11H110.346L111.196 6.19H112.776L112.666 6.79C113.066 6.29667 113.572 6.05 114.186 6.05C115.052 6.05 115.546 6.33667 115.666 6.91C116.066 6.33667 116.599 6.05 117.266 6.05C117.939 6.05 118.376 6.2 118.576 6.5C118.709 6.70667 118.776 6.93333 118.776 7.18C118.776 7.42667 118.759 7.65 118.726 7.85L118.476 9.34C118.469 9.38 118.466 9.41667 118.466 9.45C118.466 9.63 118.566 9.72 118.766 9.72Z" fill="#828282"/>
</g>
<defs>
<linearGradient id="paint0_linear" x1="188" y1="-14" x2="188" y2="148" gradientUnits="userSpaceOnUse">
<stop offset="0.0885417" stop-color="#36D8C3"/>
<stop offset="1" stop-color="#EEEEEE" stop-opacity="0"/>
</linearGradient>
<clipPath id="clip0">
<rect y="-385" width="375" height="812" fill="white"/>
</clipPath>
</defs>
</svg>
